# xmcd
#
# Track frame offsets:
#	150
#	16973
#	35173
#	59043
#	74516
#	91506
#	110743
#	130963
#	149585
#	170448
#	186577
#
# Disc length: 2873 seconds
#
# Revision: 0
# Processed by: cddbd v1.5.2PL0 Copyright (c) Steve Scherf et al.
# Submitted via: dBpowerAMP V4.0
#
DISCID=ab0b370b
DTITLE=Pretty Ricky - Late Night Special
DYEAR=1900
DGENRE=Hip-Hop
TTITLE0=Late Night Special
TTITLE1=On the hotline
TTITLE2=Love like honey
TTITLE3=Push it baby
TTITLE4=Leavi it all up to you
TTITLE5=Stay
TTITLE6=So confused
TTITLE7=Personal trainer
TTITLE8=Up and down
TTITLE9=Peer pressure
TTITLE10=Make it like it was
EXTD=
EXTT0=
EXTT1=
EXTT2=
EXTT3=
EXTT4=
EXTT5=
EXTT6=
EXTT7=
EXTT8=
EXTT9=
EXTT10=
PLAYORDER=
